PathFileType	4	(X/Y/Z)	C:/Users/opensim2020/Desktop/walking_exp_matlab/subject02_walking12_straight_02.trc	
DataRate	CameraRate	NumFrames	NumMarkers	Units	OrigDataRate	OrigDataStartFrame	OrigNumFrames	
100.00	100.00	6	42	mm	100.00	1071	149	
Frame#	Time	LFHD			RFHD			LBHD			RBHD			C7			T10			CLAV			STRN			RBAK			LSHO			LUPA			LELB			LFRM			LWRA			LWRB			LFIN			RSHO			RUPA			RELB			RFRM			RWRA			RWRB			RFIN			LASI			RASI			LPSI			RPSI			LTHI			LKNE			LTIB			LANK			LHEE			LTOE			RTHI			RKNE			RTIB			RANK			RHEE			RTOE			*39			*40			*41			
		X1	Y1	Z1	X2	Y2	Z2	X3	Y3	Z3	X4	Y4	Z4	X5	Y5	Z5	X6	Y6	Z6	X7	Y7	Z7	X8	Y8	Z8	X9	Y9	Z9	X10	Y10	Z10	X11	Y11	Z11	X12	Y12	Z12	X13	Y13	Z13	X14	Y14	Z14	X15	Y15	Z15	X16	Y16	Z16	X17	Y17	Z17	X18	Y18	Z18	X19	Y19	Z19	X20	Y20	Z20	X21	Y21	Z21	X22	Y22	Z22	X23	Y23	Z23	X24	Y24	Z24	X25	Y25	Z25	X26	Y26	Z26	X27	Y27	Z27	X28	Y28	Z28	X29	Y29	Z29	X30	Y30	Z30	X31	Y31	Z31	X32	Y32	Z32	X33	Y33	Z33	X34	Y34	Z34	X35	Y35	Z35	X36	Y36	Z36	X37	Y37	Z37	X38	Y38	Z38	X39	Y39	Z39	X40	Y40	Z40	X41	Y41	Z41	X42	Y42	Z42	

56	0.550	1481.89001	171.47449	1754.50012	1341.58557	188.30153	1726.76404	1510.51318	296.50702	1675.86108	1372.75305	325.38809	1647.07520	1441.03540	353.67633	1534.89001	1429.66199	413.64011	1261.00696	1456.62781	217.69388	1463.64807	1445.96606	169.75427	1289.70569	1370.28845	412.65506	1364.96204	1622.40039	293.09891	1507.27490	1702.10071	338.22372	1312.79077	1715.33118	362.90942	1172.28650	1725.17529	358.49078	1038.34290	1689.88391	303.06955	911.89166	1723.19714	349.11249	914.41376	1719.51672	334.89853	848.32208	1259.25720	270.11804	1501.48413	1167.01221	285.04172	1313.43567	1148.22998	264.09357	1166.50940	1134.98486	221.07944	1053.09155	1160.13074	160.28912	934.44958	1124.33447	203.78674	924.33270	1124.71875	157.30971	868.28467	1561.83215	191.55574	999.03668	1309.59009	195.71181	980.53906	1487.25342	399.52679	1046.10339	1371.60010	404.10440	1046.67908	1639.32886	189.38930	698.15100	1615.11023	157.20497	506.73328	1606.19922	239.19432	334.46588	1579.73987	266.84653	112.40722	1521.65698	293.81018	89.42731	1614.33948	129.50710	48.46315	1260.79285	291.02493	671.75000	1311.79773	311.04785	463.94287	1311.03247	366.28644	283.34109	1357.11108	398.18112	93.60304	1414.04614	435.85587	41.64951	1339.35181	249.19679	37.88640	1401.32312	286.46857	1810.79773	-3357.40967	2845.80127	1034.31360			 
57	0.560	1484.09961	159.27457	1753.30579	1343.61047	175.79720	1726.09863	1511.99658	284.53436	1674.95105	1374.07642	313.28711	1646.73120	1442.01282	341.73233	1534.04358	1430.64929	401.96970	1260.21130	1457.49768	205.72998	1462.55103	1446.16528	157.98293	1288.79602	1370.96887	401.05701	1364.41699	1623.19946	281.16147	1505.34204	1701.55872	329.78336	1311.19434	1713.44324	356.62732	1171.14868	1721.47827	356.39682	1036.74561	1684.57288	306.58517	908.68555	1718.88855	351.85751	912.90973	1714.31152	340.26343	846.17456	1260.14038	257.85556	1501.21985	1166.72046	270.89444	1313.53955	1147.29126	247.96797	1166.79480	1134.74231	202.15297	1054.62109	1160.52380	138.60667	937.44293	1124.39539	181.66830	926.06683	1125.26050	133.62338	871.47675	1561.67712	178.88374	997.80212	1309.27832	185.76102	978.52704	1489.27075	387.66299	1045.39417	1373.70764	393.57437	1045.89197	1639.66846	174.91118	698.32043	1614.79480	141.40201	506.27136	1609.57935	213.44513	328.48129	1585.86951	227.64590	104.63233	1528.50000	254.41313	79.88647	1618.52124	86.06199	49.35220	1261.79333	284.58704	671.34198	1312.25122	306.89774	463.38812	1311.67029	364.54175	283.56610	1357.49915	397.74182	93.89066	1414.38708	435.68738	41.90019	1339.13306	249.03151	37.62394	1403.17163	273.67459	1810.13159	-3360.44897	2845.29858	1034.26770			 
58	0.570	1486.23376	146.82088	1751.99670	1345.52002	163.22302	1725.09570	1513.52686	272.52399	1673.86084	1375.40015	301.06024	1646.17944	1443.17188	329.80353	1533.01074	1432.07971	390.38379	1259.25293	1458.42444	193.66132	1461.26685	1446.35889	146.17993	1287.51672	1371.69043	389.12720	1363.47803	1624.42566	269.35999	1503.29431	1700.97754	321.22482	1309.39026	1711.19812	350.12701	1169.70288	1718.36096	354.43900	1035.62354	1679.20007	309.54758	905.70740	1714.64551	354.09686	911.52063	1709.29285	345.08408	844.57605	1261.07935	245.53452	1500.61426	1167.14050	257.83951	1313.23816	1146.38782	231.97121	1166.99097	1134.36609	183.44582	1055.62524	1160.87097	117.21687	940.35828	1124.33752	159.57758	927.67224	1125.68738	110.03613	874.42346	1561.89868	166.17181	996.19019	1309.15527	175.53087	976.49084	1491.25916	375.75305	1044.23816	1375.81543	382.91287	1044.76025	1640.01355	160.92863	697.98175	1614.80786	126.10298	505.41815	1613.16052	188.01752	323.22302	1592.64478	188.52327	98.21879	1535.93982	214.88940	71.48711	1623.00256	42.94754	51.01443	1262.84998	278.19269	670.70740	1313.22461	302.96521	462.92487	1312.49866	362.44446	283.80154	1357.93811	397.30109	94.20785	1414.82727	435.49445	42.17948	1339.07642	248.99394	37.64664	1405.12463	260.88110	1809.30737	-3357.42114	2845.91504	1034.42517			 
59	0.580	1488.24390	134.53033	1750.14490	1347.52039	150.63397	1723.95801	1515.11780	260.46771	1672.53955	1377.09607	289.34668	1645.28357	1444.25439	317.80206	1531.75684	1433.65015	378.65097	1258.09180	1459.44324	181.59908	1459.86938	1446.43481	134.14441	1285.93347	1372.53955	377.17352	1362.34692	1625.48303	257.37408	1501.14709	1700.69763	312.90823	1307.74084	1708.60217	343.40576	1168.04260	1715.30762	352.22787	1034.46204	1674.99622	311.86246	903.85455	1710.65271	355.96509	910.50940	1704.55322	349.47952	843.19080	1262.20935	233.35564	1499.87732	1167.28003	244.09972	1312.98010	1145.64819	215.99968	1167.03796	1134.16785	164.70766	1056.72388	1161.16345	95.94357	943.07050	1125.09277	137.64651	929.50201	1126.53699	86.96441	877.71423	1562.43555	153.35088	994.25940	1309.24170	165.17574	974.41785	1493.26904	363.72598	1042.60535	1377.90051	372.14743	1043.28174	1640.38574	147.40175	697.02893	1615.27039	111.19543	504.11688	1616.53345	162.45087	318.00128	1599.28223	149.33923	92.87708	1543.39185	175.41052	64.63673	1627.35571	0.66832	53.53445	1264.06409	271.52423	670.05359	1314.50708	299.00745	462.55780	1313.32935	360.22031	284.05347	1358.47339	396.87796	94.48190	1415.31641	435.12009	42.31813	1339.00220	248.95715	37.59818	1407.24097	248.15440	1808.36938	-3357.23364	2845.90308	1034.31982			 
60	0.590	1490.41895	122.11179	1748.26624	1349.39587	137.88759	1722.47083	1516.78918	248.37532	1671.06909	1378.27502	276.53040	1644.51416	1445.46680	305.74786	1530.29553	1435.49414	366.85260	1256.71790	1460.51392	169.54645	1458.23535	1446.96985	122.36781	1284.50012	1373.50879	365.29428	1360.91956	1626.95789	245.63792	1499.00439	1700.34717	304.25192	1305.92578	1706.97241	337.03598	1167.00769	1712.44751	349.59314	1033.48901	1669.85791	314.32220	901.40887	1706.97839	357.32605	909.82336	1699.61975	353.01111	842.05811	1263.22266	221.19682	1498.83130	1167.30200	229.80765	1312.58289	1145.37805	200.05858	1166.68823	1134.14355	146.39268	1057.71545	1161.95068	75.00238	946.01550	1125.40735	116.51754	931.09332	1127.28052	64.11786	880.84393	1563.23352	140.39592	992.00311	1309.37451	154.68672	972.33167	1495.19141	351.67215	1040.55286	1380.07373	361.24341	1041.48145	1640.88391	134.23495	695.42572	1616.34082	96.58942	502.45068	1620.35510	136.79759	312.82401	1605.40564	110.46861	88.56818	1549.87134	135.45908	58.05900	1631.19324	-40.75224	57.49122	1265.28503	264.67245	669.25256	1315.68152	294.75989	462.00009	1314.30176	357.89151	284.30777	1359.04419	396.39450	94.88435	1415.87634	434.99619	42.84382	1338.89343	248.85306	37.52561	1409.37756	235.34294	1807.15857	-3360.29663	2845.22852	1034.07751			 
61	0.600	1492.49512	109.36337	1746.22021	1351.59338	125.38641	1720.97583	1518.47046	236.23849	1669.36438	1379.81714	264.23056	1643.36047	1446.67773	293.67468	1528.67737	1437.36084	354.86655	1255.07031	1461.66406	157.38078	1456.43616	1447.26514	110.20433	1282.61646	1374.99756	353.52039	1359.37952	1628.01685	233.44972	1496.60803	1699.76440	295.27997	1304.01123	1704.94043	330.30020	1165.75745	1709.54736	346.57788	1032.65625	1666.04041	316.18326	900.26093	1703.62183	358.13403	909.41492	1695.68909	356.37296	841.73987	1264.48425	209.01669	1497.72485	1167.83630	216.41907	1312.01587	1144.67590	184.33069	1166.61414	1134.16357	128.17790	1058.52063	1162.60046	54.38769	948.76678	1125.88782	95.29107	932.76318	1128.02490	41.57077	883.98218	1564.17297	127.27619	989.54053	1309.68896	144.01089	970.45557	1497.05798	339.52451	1038.23083	1382.22302	350.23483	1039.39050	1641.47192	121.53432	693.18286	1617.79858	82.39498	500.45532	1624.76587	111.34338	308.57892	1611.35498	72.50565	85.98954	1556.66101	97.10583	53.59173	1634.22351	-81.01650	63.22684	1266.50366	257.54449	668.50281	1316.49170	290.07678	461.31400	1315.21155	355.62695	284.58102	1359.73010	395.89771	95.41985	1416.44690	434.44452	43.12902	1338.76965	248.76898	37.43475	1411.54639	222.51338	1805.74658	-3360.22949	2845.27783	1033.99036			 
